<?xml version="1.0" standalone="no"?>
<!DOCTYPE svg PUBLIC "-//W3C//DTD SVG 20010904//EN"
 "http://www.w3.org/TR/2001/REC-SVG-20010904/DTD/svg10.dtd">
<svg version="1.0" xmlns="http://www.w3.org/2000/svg"
 width="1000.000000pt" height="983.000000pt" viewBox="0 0 1000.000000 983.000000"
 preserveAspectRatio="xMidYMid meet">

<g transform="translate(0.000000,983.000000) scale(0.100000,-0.100000)"
fill="#000000" stroke="none">
<path d="M3545 8273 c-226 -28 -466 -121 -665 -257 -96 -65 -261 -229 -329
-326 -192 -273 -282 -623 -252 -972 50 -564 333 -1139 874 -1773 234 -275 628
-643 953 -892 355 -271 812 -535 900 -519 48 9 322 151 458 237 373 237 700
502 1052 853 244 245 362 378 529 601 637 849 812 1624 510 2262 -104 220
-190 316 -485 545 -136 105 -310 180 -520 225 -121 26 -411 25 -530 -1 -438
-95 -756 -374 -935 -821 -39 -99 -53 -115 -100 -115 -42 0 -58 19 -100 125
-184 458 -530 745 -990 820 -81 13 -292 18 -370 8z m644 -1154 c30 -11 42 -31
146 -243 62 -127 192 -390 289 -585 97 -195 175 -356 173 -357 -1 -2 -33 -17
-71 -33 l-68 -31 -247 501 -247 500 -208 -428 c-114 -235 -217 -436 -228 -446
-19 -16 -54 -17 -492 -15 l-471 3 0 63 c0 35 2 68 6 73 3 5 196 10 433 11
l428 3 236 484 c225 458 246 496 288 511 1 0 16 -5 33 -11z m3051 -1064 l0
-75 -738 0 -737 0 -244 -537 c-151 -334 -252 -547 -268 -560 -29 -27 -63 -29
-91 -5 -19 15 -297 561 -290 567 2 1 32 17 67 35 55 28 66 30 75 17 6 -8 49
-94 96 -190 47 -97 88 -177 91 -177 4 0 107 221 230 491 122 269 230 494 238
499 9 6 341 10 794 10 l777 0 0 -75z"/>
<path d="M1282 5694 l-22 -15 49 -39 c121 -96 249 -312 434 -732 25 -56 25
-56 84 -68 32 -7 84 -25 115 -41 l58 -29 -9 23 c-22 57 -197 397 -255 495
-189 319 -360 472 -454 406z"/>
<path d="M8598 5690 c-85 -45 -215 -202 -334 -402 -58 -98 -233 -438 -255
-495 l-9 -23 58 29 c31 16 83 34 115 41 59 12 59 12 84 68 185 420 313 636
434 732 l49 39 -22 15 c-30 21 -75 19 -120 -4z"/>
<path d="M1011 5567 c-38 -23 -50 -56 -51 -142 0 -106 31 -220 125 -455 40
-102 121 -321 180 -485 264 -745 332 -920 455 -1165 142 -283 290 -490 505
-706 163 -164 270 -252 565 -469 263 -192 330 -246 444 -355 88 -85 224 -254
254 -316 13 -28 22 -34 56 -38 34 -4 1073 -57 1114 -56 9 0 12 49 12 209 0
885 -171 1394 -579 1723 -231 187 -474 303 -991 473 -293 96 -481 181 -590
263 -86 66 -179 158 -321 317 -221 247 -306 314 -414 323 -62 5 -108 -15 -130
-58 -23 -44 -19 -143 9 -221 34 -98 92 -180 317 -450 282 -336 462 -562 632
-790 190 -256 242 -303 347 -316 l48 -6 -5 -76 c-3 -42 -7 -78 -9 -80 -8 -10
-162 32 -202 55 -71 42 -155 127 -240 244 -181 249 -348 460 -685 863 -226
271 -273 335 -322 438 -95 203 -84 378 32 486 l46 43 -48 107 c-139 315 -279
541 -379 612 -55 40 -133 52 -175 28z"/>
<path d="M8855 5564 c-122 -64 -258 -269 -420 -637 l-48 -107 46 -43 c116
-108 127 -283 32 -486 -49 -103 -96 -167 -322 -438 -337 -403 -504 -614 -685
-863 -85 -117 -169 -202 -240 -244 -40 -23 -194 -65 -202 -55 -2 2 -6 38 -9
80 l-7 76 50 6 c104 12 157 60 345 312 173 233 359 466 631 791 114 136 227
279 252 318 59 91 92 184 92 264 0 110 -46 158 -145 150 -108 -9 -193 -76
-414 -323 -142 -159 -235 -251 -321 -317 -109 -82 -297 -167 -590 -263 -312
-103 -470 -165 -635 -247 -612 -306 -867 -744 -925 -1586 -15 -223 -14 -572 3
-572 40 -1 1079 52 1113 56 34 4 43 10 56 38 30 62 166 231 254 316 114 109
181 163 444 355 295 217 402 305 565 469 214 216 357 414 500 697 124 245 194
422 460 1174 59 164 140 383 180 485 92 231 125 349 125 452 0 42 -5 89 -12
103 -23 52 -111 72 -173 39z"/>
</g>
</svg>
